<svg xmlns="http://www.w3.org/2000/svg" viewBox="0 0 1424.28 554.73"><defs><style>.cls-1{fill:#fff;}.cls-2{fill:#280056;}</style></defs><g id="Camada_2" data-name="Camada 2"><g id="main"><g id="logo"><g id="Multimarcas"><path class="cls-1" d="M441.58,472.92a59.4,59.4,0,0,1,1.11-7.39,17.4,17.4,0,0,1,1.44-4.15,4,4,0,0,1,1.71-1.82,4.5,4.5,0,0,1,1.83-.41h5a1.18,1.18,0,0,1,1,.41,1.53,1.53,0,0,1,.33,1v91.66a1.56,1.56,0,0,1-.33,1,1.18,1.18,0,0,1-1,.4H449a3.63,3.63,0,0,1-2.88-1.11,3.94,3.94,0,0,1-.92-2.87l2-66.15-6.75,66.76a3.26,3.26,0,0,1-1.51,2.39,5,5,0,0,1-3,1h-.13a5,5,0,0,1-3-1,3.26,3.26,0,0,1-1.51-2.39l-6.81-66.9,2,66.29a3.93,3.93,0,0,1-.91,2.87,3.67,3.67,0,0,1-2.89,1.11h-3.66a1.2,1.2,0,0,1-1-.4,1.56,1.56,0,0,1-.32-1V460.57a1.53,1.53,0,0,1,.32-1,1.2,1.2,0,0,1,1-.41h4.45a5.82,5.82,0,0,1,1.93.37,4.28,4.28,0,0,1,1.94,1.79,15.79,15.79,0,0,1,1.67,4.15,47,47,0,0,1,1.21,7.46l5.7,57.11Z"/><path class="cls-1" d="M513.17,543.12a11.13,11.13,0,0,1-3.3,8.51q-3.31,3.11-9.27,3.1a15.51,15.51,0,0,1-5.18-.81,11.34,11.34,0,0,1-4-2.33,10,10,0,0,1-2.55-3.64,12.49,12.49,0,0,1-.89-4.83V460.57a1.53,1.53,0,0,1,.33-1,1.18,1.18,0,0,1,1-.41H493a4,4,0,0,1,2.75,1,3.19,3.19,0,0,1,1.05,2.49v80.53a4.42,4.42,0,0,0,.92,2.94,3.52,3.52,0,0,0,2.88,1.11,3.56,3.56,0,0,0,2.85-1.11,4.38,4.38,0,0,0,.95-2.94V462.59a3.22,3.22,0,0,1,1-2.49,4,4,0,0,1,2.76-1h3.66a1.2,1.2,0,0,1,1,.41,1.58,1.58,0,0,1,.32,1Z"/><path class="cls-1" d="M547.23,553.65a1.19,1.19,0,0,1-1-.4,1.56,1.56,0,0,1-.33-1V460.57a1.53,1.53,0,0,1,.33-1,1.2,1.2,0,0,1,1-.41h3.67a4,4,0,0,1,2.75,1,3.19,3.19,0,0,1,1.05,2.49v83.5h8.06a3,3,0,0,1,2.42,1.08,4.25,4.25,0,0,1,.92,2.84v2.29a1.25,1.25,0,0,1-.39,1,1.45,1.45,0,0,1-1,.34Z"/><path class="cls-1" d="M611.23,459.15a1.48,1.48,0,0,1,1,.34,1.27,1.27,0,0,1,.4,1v2.3a4.22,4.22,0,0,1-.92,2.83,3,3,0,0,1-2.42,1.08H605.2v84.51a2.39,2.39,0,0,1-.68,1.72,2.22,2.22,0,0,1-1.67.71h-4.07a2.22,2.22,0,0,1-1.67-.71,2.39,2.39,0,0,1-.68-1.72V466.71h-4.06a3,3,0,0,1-2.43-1.08,4.22,4.22,0,0,1-.92-2.83v-2.3a1.27,1.27,0,0,1,.4-1,1.48,1.48,0,0,1,1-.34Z"/><path class="cls-1" d="M643.52,462.59a3.19,3.19,0,0,1,1.05-2.49,4,4,0,0,1,2.75-1H651a1.18,1.18,0,0,1,1,.41,1.53,1.53,0,0,1,.33,1v90.65a2.36,2.36,0,0,1-.69,1.72,2.21,2.21,0,0,1-1.67.71h-4.06a2.22,2.22,0,0,1-1.67-.71,2.36,2.36,0,0,1-.69-1.72Z"/><path class="cls-1" d="M709,472.92a57.29,57.29,0,0,1,1.12-7.39,16.56,16.56,0,0,1,1.44-4.15,3.94,3.94,0,0,1,1.7-1.82,4.5,4.5,0,0,1,1.83-.41h5a1.2,1.2,0,0,1,1,.41,1.58,1.58,0,0,1,.32,1v91.66a1.61,1.61,0,0,1-.32,1,1.2,1.2,0,0,1-1,.4h-3.66a3.67,3.67,0,0,1-2.89-1.11,3.93,3.93,0,0,1-.91-2.87l2-66.15-6.75,66.76a3.25,3.25,0,0,1-1.5,2.39,5,5,0,0,1-3,1h-.13a5,5,0,0,1-3-1,3.26,3.26,0,0,1-1.51-2.39l-6.81-66.9,2,66.29a4,4,0,0,1-.92,2.87,3.66,3.66,0,0,1-2.88,1.11h-3.67a1.17,1.17,0,0,1-1-.4,1.56,1.56,0,0,1-.33-1V460.57a1.53,1.53,0,0,1,.33-1,1.17,1.17,0,0,1,1-.41h4.45a5.87,5.87,0,0,1,1.94.37,4.27,4.27,0,0,1,1.93,1.79,15.45,15.45,0,0,1,1.67,4.15,47,47,0,0,1,1.21,7.46l5.7,57.11Z"/><path class="cls-1" d="M770.46,459.15a1.12,1.12,0,0,1,.92.41,1.76,1.76,0,0,1,.39.94L779.63,552a1.49,1.49,0,0,1-.36,1.15,1.6,1.6,0,0,1-1.34.54h-3.21a3.87,3.87,0,0,1-2.72-1,3.58,3.58,0,0,1-1.21-2.39l-.72-12.9h-6.62l-.72,12.9a3.54,3.54,0,0,1-1.21,2.39,3.87,3.87,0,0,1-2.72,1h-3.21a1.6,1.6,0,0,1-1.34-.54,1.57,1.57,0,0,1-.36-1.15l7.86-91.46a1.84,1.84,0,0,1,.39-.94,1.13,1.13,0,0,1,.92-.41Zm-6.61,70.67h5.76l-2.88-50.49Z"/><path class="cls-1" d="M823.52,459.15a14.53,14.53,0,0,1,5.11.85,12,12,0,0,1,3.93,2.32,10,10,0,0,1,2.52,3.65,12.53,12.53,0,0,1,.89,4.79v32a9.3,9.3,0,0,1-1.15,4.86,8.58,8.58,0,0,1-3.18,3,8.77,8.77,0,0,1,3.18,3,9,9,0,0,1,1.15,4.76v33.81a1.62,1.62,0,0,1-.33,1,1.2,1.2,0,0,1-1,.4H831a3.54,3.54,0,0,1-2.85-1.11,4.23,4.23,0,0,1-.95-2.87V518.42a4.58,4.58,0,0,0-.89-2.94,3.51,3.51,0,0,0-2.91-1.11h-3.8v35.3a4.28,4.28,0,0,1-1,2.87,3.54,3.54,0,0,1-2.85,1.11h-3.67a1.18,1.18,0,0,1-1-.4,1.56,1.56,0,0,1-.33-1V460.57a1.53,1.53,0,0,1,.33-1,1.18,1.18,0,0,1,1-.41Zm-3.93,7.56v40.1h3.8a3.45,3.45,0,0,0,2.88-1.15,4.5,4.5,0,0,0,.92-2.9v-32a4.42,4.42,0,0,0-1-2.9,3.49,3.49,0,0,0-2.85-1.15Z"/><path class="cls-1" d="M885.09,516.32a4.29,4.29,0,0,1,.92-2.86,3.52,3.52,0,0,1,2.75-1.19h3.8a1.2,1.2,0,0,1,1,.41,1.55,1.55,0,0,1,.33,1v29.43a11.13,11.13,0,0,1-3.31,8.51q-3.31,3.11-9.27,3.1a15.41,15.41,0,0,1-5.17-.81,11.48,11.48,0,0,1-4-2.33A10.08,10.08,0,0,1,869.6,548a12.49,12.49,0,0,1-.89-4.83V469.68a11.11,11.11,0,0,1,3.31-8.5q3.32-3.1,9.27-3.11a15.52,15.52,0,0,1,5.14.81,11.58,11.58,0,0,1,4,2.33,10.12,10.12,0,0,1,2.55,3.65,12.4,12.4,0,0,1,.89,4.82v30.24a1.53,1.53,0,0,1-.33,1,1.2,1.2,0,0,1-1,.41h-3.67a3.54,3.54,0,0,1-2.85-1.11,4.3,4.3,0,0,1-.95-2.87V469.68a4.47,4.47,0,0,0-.92-2.93,4.22,4.22,0,0,0-5.73,0,4.37,4.37,0,0,0-1,2.93v73.44a4.48,4.48,0,0,0,.92,2.94,4.25,4.25,0,0,0,5.73,0,4.38,4.38,0,0,0,1-2.94Z"/><path class="cls-1" d="M941.62,459.15a1.1,1.1,0,0,1,.91.41,1.85,1.85,0,0,1,.4.94L950.79,552a1.57,1.57,0,0,1-.36,1.15,1.62,1.62,0,0,1-1.35.54h-3.2a3.85,3.85,0,0,1-2.72-1,3.59,3.59,0,0,1-1.22-2.39l-.72-12.9h-6.61l-.72,12.9a3.58,3.58,0,0,1-1.21,2.39,3.87,3.87,0,0,1-2.72,1h-3.21a1.6,1.6,0,0,1-1.34-.54,1.49,1.49,0,0,1-.36-1.15l7.86-91.46a1.76,1.76,0,0,1,.39-.94,1.12,1.12,0,0,1,.92-.41ZM935,529.82h5.77l-2.89-50.49Z"/><path class="cls-1" d="M1002.14,491.75a3.54,3.54,0,0,1-2.85-1.11,4.28,4.28,0,0,1-.95-2.87V469.68a4.37,4.37,0,0,0-1-2.93,4.22,4.22,0,0,0-5.73,0,4.47,4.47,0,0,0-.92,2.93,80.25,80.25,0,0,0,.69,11.07,68,68,0,0,0,1.87,9.11,79.45,79.45,0,0,0,2.65,7.9c1,2.48,2,4.94,3,7.39s2,5,3,7.53a78.49,78.49,0,0,1,4.52,18.29,96.56,96.56,0,0,1,.69,12.15,12.49,12.49,0,0,1-.89,4.83,10.08,10.08,0,0,1-2.55,3.64,11.34,11.34,0,0,1-4,2.33,15.52,15.52,0,0,1-5.14.81q-6,0-9.27-3.1a11.13,11.13,0,0,1-3.3-8.51V522.47a1.56,1.56,0,0,1,.32-1,1.19,1.19,0,0,1,1-.4h3.67a3.54,3.54,0,0,1,2.85,1.11,4.25,4.25,0,0,1,1,2.87v18.09a4.38,4.38,0,0,0,1,2.94,4.25,4.25,0,0,0,5.73,0,4.48,4.48,0,0,0,.92-2.94A83,83,0,0,0,997.13,528a82,82,0,0,0-3-11.78q-1.83-5.29-3.93-10.05t-3.93-10a81.56,81.56,0,0,1-3-11.61A79.85,79.85,0,0,1,982,469.68a12.4,12.4,0,0,1,.88-4.82,10.12,10.12,0,0,1,2.55-3.65,11.64,11.64,0,0,1,4-2.33,15.41,15.41,0,0,1,5.17-.81c4,0,7.06,1,9.27,3.11a11.07,11.07,0,0,1,3.31,8.5v20.66a1.55,1.55,0,0,1-.33,1,1.19,1.19,0,0,1-1,.4Z"/></g><g id="FACILITA"><path class="cls-2" d="M535.63,434.64c-16.81-.31-32.84-1.8-48.27-7.11-37-12.71-55.78-40.29-54.31-79.47,2.05-54.33,39.7-93.18,94-97.32A218.57,218.57,0,0,1,601.64,258c3.61,1,5,2.11,4,6.41-3.83,16.68-7.21,33.46-10.5,50.24-.69,3.5-1.86,4.08-5.13,3.08-15.74-4.86-31.55-9.23-48.31-9-32.29.43-41.61,24-38.21,47.87,1.06,7.45,5.78,12.5,12.85,15.29,16.12,6.38,32.3,4.68,48.52.51,1.44-.37,2.86-.86,4.29-1.31,8.69-2.75,8.72-2.75,9.82,6.44,1.91,15.85,3.64,31.72,5.78,47.54.49,3.57-1.33,3.82-3.71,4.33A255,255,0,0,1,535.63,434.64Z"/><path class="cls-2" d="M174.19,303.06c-12,0-24,.14-36-.09-3.22-.07-4.39,1.11-4.87,4A78.4,78.4,0,0,1,131,318.17c-1.27,3.95-.46,5,3.8,5,18.16-.23,36.32.07,54.48-.21,4.69-.08,5.51,1.06,4.54,5.51-2.51,11.53-4.64,23.14-6.68,34.77-.7,3.95-1.94,5.72-6.55,5.62-17.49-.35-35,0-52.48-.24-3.6,0-4.73,1-5.4,4.48-3.37,17.29-7.13,34.51-10.52,51.8-.75,3.85-2,5.34-6.33,5.27q-28.73-.48-57.47,0c-4.6.07-5-1.23-4.18-5.22q12.9-66.57,25.53-133.21c2.15-11.26,4.41-22.51,6.38-33.8.47-2.71,1.45-3.57,4.16-3.56q69.22.1,138.44,0c3.26,0,4,.95,3.45,4-2.58,13.73-5.14,27.46-7.46,41.23-.51,3-1.75,3.6-4.53,3.56C198.19,303,186.19,303.06,174.19,303.06Z"/><path class="cls-2" d="M1153.13,309.41c-7.5,0-15,.08-22.48-.05-2.72,0-4.05.53-4.65,3.63-7.18,37.37-14.62,74.69-21.78,112.06-.73,3.79-2,5.11-6,5.06-19.82-.22-39.64-.15-59.46-.05-3.33,0-4.87.07-4-4.39,7.46-37,14.5-74,21.9-111,.86-4.32.09-5.4-4.31-5.33-14.81.25-29.64,0-44.46.17-3.49,0-4.17-.86-3.48-4.24,3.07-15.15,6-30.32,8.72-45.54.74-4.2,2.4-5.43,6.72-5.42q82.68.25,165.37,0c4.85,0,5.7,1.17,4.71,5.74-3.24,14.93-6.13,29.93-9,44.93-.61,3.12-1.49,4.81-5.36,4.58C1168.13,309.1,1160.62,309.41,1153.13,309.41Z"/><path class="cls-2" d="M785.14,430c-22.83,0-45.65-.05-68.47.06-3.25,0-4.55-.11-3.75-4.21q16.26-84,32.07-168c.52-2.74,1.54-3.51,4.2-3.5,20.82.08,41.65.12,62.47,0,3.47,0,3.78,1.19,3.21,4.12q-10.71,54.82-21.25,109.67a21.8,21.8,0,0,1-.55,2.94c-1.23,3.52-.05,4.41,3.6,4.38,21.83-.16,43.65,0,65.47-.17,4.46,0,6.05.58,5,5.61-3.26,14.93-6.11,30-8.81,45-.61,3.4-1.92,4.22-5.17,4.2C830.45,430,807.79,430,785.14,430Z"/><path class="cls-2" d="M640.65,430c-10,0-20-.14-30,.08-3.49.07-4.44-.48-3.69-4.3,7-35.55,13.82-71.15,20.67-106.73,3.87-20.08,7.79-40.15,11.5-60.26.63-3.4,1.84-4.54,5.45-4.5q30.24.3,60.48,0c4.33,0,4.77,1.24,4,5Q697.28,319,685.72,378.76c-3.09,15.82-6.36,31.61-9.22,47.47-.6,3.33-1.93,3.88-4.86,3.84C661.32,429.92,651,430,640.65,430Z"/><path class="cls-2" d="M919.89,430c-10.33,0-20.66-.11-31,.07-3.21.05-3.7-.59-3-3.89q16.35-83.94,32.31-168c.59-3.08,1.9-3.92,5-3.9,20.32.14,40.65.18,61,0,3.84,0,4.77.72,4,4.67q-14.39,72.64-28.47,145.35c-1.44,7.35-3.08,14.65-4.25,22-.47,3-1.62,3.75-4.49,3.7C940.55,429.91,930.22,430,919.89,430Z"/><path class="cls-2" d="M193.65,430c9.13-16.5,17.79-32.16,26.44-47.83q34.07-61.73,68-123.51c1.75-3.19,3.62-4.39,7.29-4.36q39.72.24,79.43,0c3.72,0,5,.84,5.49,4.82,4,33.51,8.29,67,12.48,100.47,2.77,22.11,5.45,44.23,8.31,66.33.43,3.33-.48,4.17-3.8,4.15q-29.73-.22-59.45,0c-3.38,0-4.29-1.22-4.51-4.18-.48-6.64-1.21-13.25-1.74-19.89-.17-2.22-1-3.08-3.37-3.06q-24,.15-48,0c-2.45,0-3.43,1.09-4.45,3-3.7,7.06-7.6,14-11.4,21-.87,1.61-1.51,3.06-3.92,3.05C238.56,430,216.58,430,193.65,430ZM325,299l-.85-.14c-9.63,20.18-19.25,40.37-29,60.84h34.75Z"/><path class="cls-2" d="M1150.88,430l29.22-52.95q32.76-59.37,65.46-118.76c1.54-2.81,3.15-4,6.51-4q40.25.24,80.48,0c3.3,0,4.44.77,4.86,4.23,4.44,36.83,9.1,73.64,13.69,110.45,2.37,19,4.6,38,7.16,57,.49,3.55-.46,4.12-3.69,4.1q-29.74-.18-59.48,0c-3.25,0-4.19-.95-4.36-4.07-.37-6.48-1.3-12.92-1.72-19.39-.18-2.76-1.11-3.69-3.92-3.66q-23.74.16-47.49,0c-2.47,0-3.53,1.07-4.54,3-3.72,7.05-7.58,14-11.32,21.07-1,1.87-2,3.09-4.48,3.08C1195.44,430,1173.62,430,1150.88,430Zm130.35-130.93c-9.58,20.09-19.16,40.19-29,60.79,11.18,0,21.65-.1,32.11.07,2.87,0,2.74-1.35,2.57-3.35-.71-8.11-1.32-16.23-2-24.35q-1.38-16.5-2.79-33Z"/></g><path id="carro-vetor" class="cls-2" d="M990,218.77c-39.56-1.17-70.51-1.9-101.45-3.06q-68.6-2.57-137.17-5.65c-63.35-2.78-126.66-6.2-190-9.89Q460.73,194.31,360,189.09c-40.07-2.05-80.19-3.56-120.32-2.9-54,.9-107.19,7.3-158.09,26.76-27.72,10.59-53.48,24.53-75,45.42-1.61,1.57-3.36,2.46-5.3,1.08S0,256,.81,254c5.11-11.65,13-21.25,22.31-29.73,21-19.2,46.05-31.4,72.42-41.1,35.58-13.07,72.44-21.07,109.9-26.27,57.38-8,115.1-13.05,172.59-20.12,10.73-1.32,21.4-3.11,32.05-5,10.84-1.93,20-7.45,29.25-13.3C494.4,83.57,550.59,50.63,612,27.7,662.17,8.94,714.26.1,767.84,0,803,0,838.15,0,873.3.2c99.83.68,195.42,20.92,286.42,62.24a545.92,545.92,0,0,0,151.17,44.29c23.26,3.24,46.7,4.59,70.11,6.24,7.31.51,14.62,1.12,21.71,3.06,8.78,2.4,10.87,5.38,11.38,14.39,1,17.49,4.74,34.59,7.42,51.84,1.58,10.21,3.11,20.41,2.7,30.79-.36,9.06-2.34,11.06-11.22,11-50-.11-100-.09-150-.38-34.3-.2-68.61-.75-102.91-1.29q-52.42-.84-104.86-2C1030.62,219.89,1006,219.18,990,218.77ZM745.87,24.08c-20.74,1.37-41.58,2-62.12,5.49-34.41,5.89-66.28,19-97.06,35-37.15,19.37-71.6,42.83-104.28,69-1.82,1.46-4,2.89-3,5.69s3.37,2.85,5.84,2.72c4.15-.22,8.3-.38,12.46-.53q65.32-2.28,130.66-4.57,66.11-2.35,132.21-4.74c32.75-1.16,65.52-2.18,98.28-3.36q62.33-2.25,124.65-4.64l81.81-3c6-.22,10.83-2.89,14.7-7.38,9.25-10.71,9.83-23.78,1.48-35.21-5-6.83-11.53-12-18.65-16.37C1042,49.28,1019,41.6,995.33,36,939,22.79,881.68,20.94,835.52,21,798.05,21.41,771.94,22.36,745.87,24.08Z"/></g></g></g></svg>